<svg width="110" height="104" viewBox="0 0 110 104" fill="none" xmlns="http://www.w3.org/2000/svg">
<path d="M76.5067 11.5556H70.0866V10.3423C70.0866 9.13171 69.5825 7.97073 68.6852 7.11473C67.7879 6.25873 66.5708 5.77783 65.3018 5.77783H44.5879C43.3189 5.77783 42.1019 6.25873 41.2045 7.11473C40.3072 7.97073 39.8031 9.13171 39.8031 10.3423V11.5556H33.383C31.873 11.5556 30.4249 12.1278 29.3572 13.1463C28.2895 14.1649 27.6897 15.5463 27.6897 16.9867V92.7912C27.6897 93.5044 27.837 94.2106 28.1231 94.8696C28.4092 95.5285 28.8286 96.1272 29.3572 96.6315C29.8859 97.1359 30.5135 97.5359 31.2043 97.8089C31.895 98.0818 32.6353 98.2223 33.383 98.2223H76.5067C78.0167 98.2223 79.4648 97.6501 80.5325 96.6315C81.6002 95.613 82.2 94.2316 82.2 92.7912V16.9867C82.2 15.5463 81.6002 14.1649 80.5325 13.1463C79.4648 12.1278 78.0167 11.5556 76.5067 11.5556ZM76.1433 92.4445H33.7464V17.3334H45.8598V11.5556H64.0299V17.3334H76.1433V92.4445Z" fill="#DDDDDD"/>
<rect x="32.9312" y="21" width="44.0276" height="72" fill="#DDDDDD"/>
<g clip-path="url(#clip0_36_572)">
<path d="M64.0499 35.1996C64.3374 35.3663 64.5599 35.6255 64.681 35.9349C64.8021 36.2444 64.8147 36.5858 64.7167 36.9033L59.4263 54.0936H69.1876C69.4745 54.0935 69.7551 54.1774 69.9948 54.3349C70.2345 54.4924 70.4229 54.7167 70.5366 54.9801C70.6503 55.2435 70.6844 55.5344 70.6347 55.8169C70.585 56.0994 70.4536 56.3612 70.2568 56.5699L46.7568 81.5386C46.5295 81.7804 46.2269 81.9381 45.8984 81.9859C45.57 82.0337 45.235 81.9688 44.9481 81.8019C44.6613 81.6349 44.4394 81.3758 44.3187 81.0666C44.198 80.7574 44.1856 80.4164 44.2835 80.0993L49.5739 62.9061H39.8126C39.5257 62.9062 39.2451 62.8223 39.0054 62.6648C38.7657 62.5072 38.5773 62.2829 38.4636 62.0196C38.3499 61.7562 38.3158 61.4653 38.3655 61.1828C38.4152 60.9003 38.5466 60.6385 38.7433 60.4298L62.2433 35.461C62.4705 35.2196 62.7726 35.062 63.1006 35.014C63.4286 34.966 63.7631 35.0304 64.0499 35.1966V35.1996Z" fill="#053B50"/>
</g>
<defs>
<clipPath id="clip0_36_572">
<rect width="47" height="47" fill="white" transform="translate(31 35)"/>
</clipPath>
</defs>
</svg>
