<svg width="48" height="48" viewBox="0 0 48 48" fill="none" xmlns="http://www.w3.org/2000/svg">
<path d="M24 42C19.4 42 15.3913 40.4747 11.974 37.424C8.55667 34.3733 6.59867 30.5653 6.1 26H10.2C10.6667 29.4667 12.2087 32.3333 14.826 34.6C17.4433 36.8667 20.5013 38 24 38C27.9 38 31.2087 36.6413 33.926 33.924C36.6433 31.2067 38.0013 27.8987 38 24C38 20.1 36.6413 16.7913 33.924 14.074C31.2067 11.3567 27.8987 9.99867 24 10C21.7 10 19.55 10.5333 17.55 11.6C15.55 12.6667 13.8667 14.1333 12.5 16H18V20H6V8H10V12.7C11.7 10.5667 13.7753 8.91667 16.226 7.75C18.6767 6.58333 21.268 6 24 6C26.5 6 28.842 6.47533 31.026 7.426C33.21 8.37667 35.11 9.65933 36.726 11.274C38.342 12.8913 39.6253 14.7913 40.576 16.974C41.5267 19.1567 42.0013 21.4987 42 24C42 26.5 41.5247 28.842 40.574 31.026C39.6233 33.21 38.3407 35.11 36.726 36.726C35.1087 38.342 33.2087 39.6253 31.026 40.576C28.8433 41.5267 26.5013 42.0013 24 42ZM29.6 32.4L22 24.8V14H26V23.2L32.4 29.6L29.6 32.4Z" fill="#A9A9A9"/>
</svg>
